<svg width="146" height="155" viewBox="0 0 146 155" fill="none" xmlns="http://www.w3.org/2000/svg">
<path d="M89.3771 0C87.9765 0 86.842 1.13677 86.842 2.53841C86.842 3.94005 87.9765 5.07683 89.3771 5.07683C101.859 5.07683 112.013 15.2446 112.013 27.7425V70.285C112.013 71.6868 113.148 72.8235 114.548 72.8235C115.949 72.8235 117.084 71.6868 117.084 70.285V27.7425C117.084 12.4455 104.654 0 89.3771 0Z" fill="#109BBB"/>
<path d="M117.956 0C116.556 0 115.421 1.13677 115.421 2.53841C115.421 3.94005 116.556 5.07683 117.956 5.07683C130.438 5.07683 140.592 15.2446 140.592 27.7425V70.285C140.592 71.6868 141.727 72.8235 143.128 72.8235C144.528 72.8235 145.663 71.6868 145.663 70.285V27.7425C145.663 12.4455 133.233 0 117.956 0Z" fill="#109BBB"/>
<path d="M93.234 47.2313V107.772C93.234 133.807 72.3201 155 46.629 155C29.7859 155 14.2103 145.762 5.94724 130.892C4.80161 128.817 5.5331 126.174 7.58011 125.013C9.62785 123.828 12.2362 124.569 13.3818 126.644C20.1337 138.821 32.8818 146.355 46.629 146.355C67.616 146.355 84.7028 129.039 84.7028 107.772V47.2313C84.7028 25.9642 67.616 8.64909 46.629 8.64909C25.6419 8.64909 8.57997 25.9148 8.53122 47.1819V47.2313C8.53122 49.6273 6.62973 51.5539 4.26561 51.5539C1.92538 51.5539 0.0487504 49.6767 0 47.3054V47.2313C1.42737e-06 21.197 20.9134 0.00390625 46.629 0.00390625C72.3201 0.00390625 93.234 21.197 93.234 47.2313Z" fill="#05334C"/>
</svg>
